<svg xmlns="http://www.w3.org/2000/svg" width="48" height="48" viewBox="0 0 48 48" fill="none">
  <!-- Background circle -->
  <circle cx="24" cy="24" r="23" fill="#1a1814"/>
  <circle cx="24" cy="24" r="23" stroke="#c47a3a" stroke-width="1.5" opacity="0.4"/>
  <!-- Microphone body -->
  <rect x="18" y="10" width="12" height="18" rx="6" fill="#c47a3a"/>
  <!-- Microphone grille lines -->
  <line x1="20" y1="15" x2="28" y2="15" stroke="#1a1814" stroke-width="0.8" opacity="0.3"/>
  <line x1="20" y1="18" x2="28" y2="18" stroke="#1a1814" stroke-width="0.8" opacity="0.3"/>
  <line x1="20" y1="21" x2="28" y2="21" stroke="#1a1814" stroke-width="0.8" opacity="0.3"/>
  <!-- Microphone stand arc -->
  <path d="M15 26a9 9 0 0 0 18 0" stroke="#c47a3a" stroke-width="2" fill="none" stroke-linecap="round"/>
  <!-- Stand -->
  <line x1="24" y1="35" x2="24" y2="40" stroke="#c47a3a" stroke-width="2" stroke-linecap="round"/>
  <line x1="19" y1="40" x2="29" y2="40" stroke="#c47a3a" stroke-width="2" stroke-linecap="round"/>
  <!-- Sound wave accent -->
  <path d="M34 16a5 5 0 0 1 0 8" stroke="#e8a838" stroke-width="1.5" fill="none" stroke-linecap="round" opacity="0.7"/>
  <path d="M37 13a10 10 0 0 1 0 14" stroke="#e8a838" stroke-width="1.2" fill="none" stroke-linecap="round" opacity="0.4"/>
</svg>
